{"title":"Eat Pray Love DC BDRip XviD-Larceny","uid":5937023,"size":1486973275,"categoryP":"video","categoryS":"movies","magnet":"?xt=urn:btih:0f12a2ae1b48578298d55310c08e7e90fc385a5f&amp;dn=Eat+Pray+Love+DC+BDRip+XviD-Larceny&amp;tr=udp%3A%2F%2Ftracker.openbittorrent.com%3A80&amp;tr=udp%3A%2F%2Fopen.demonii.com%3A1337&amp;tr=udp%3A%2F%2Ftracker.coppersurfer.tk%3A6969&amp;tr=udp%3A%2F%2Fexodus.desync.com%3A6969","seeders":1,"leechers":0,"uploader":"IwannaFan2","files":7,"time":1289005001,"description":"Filename:\nEat Pray Love DC BDRip XviD-Larceny\n &lt;a href=&quot;\nhttp://www.imdb.com/title/tt0879870/&quot; rel=&quot;nofollow&quot; target=&quot;_NEW&quot;&gt;\nhttp://www.imdb.com/title/tt0879870/&lt;/a&gt;\n\nGeneral\nComplete name                    : C:\\Movies\\Eat Pray Love DC BDRipPray Love DC BDRipPart 1.avi\nFormat                           : AVI\nFormat/Info                      : Audio Video Interleave\nFile size                        : 700 MiB\nDuration                         : 1h 22mn\nOverall bit rate                 : 1 189 Kbps\nWriting application              : VirtualDubMod 1.5.10.2 (build 2540/release)\nWriting library                  : VirtualDubMod build 2540/release\nsegm                             : \u0001\n\nVideo\nID                               : 0\nFormat                           : MPEG-4 Visual\nFormat profile                   : AdvancedSimple@L5\nFormat settings, BVOP            : Yes\nFormat settings, QPel            : No\nFormat settings, GMC             : No warppoints\nFormat settings, Matrix          : Default (H.263)\nCodec ID                         : XVID\nCodec ID/Hint                    : XviD\nDuration                         : 1h 22mn\nBit rate                         : 1 031 Kbps\nWidth                            : 624 pixels\nHeight                           : 336 pixels\nDisplay aspect ratio             : 1.857\nFrame rate                       : 23.976 fps\nResolution                       : 24 bits\nColorimetry                      : 4:2:0\nScan type                        : Progressive\nBits/(Pixel*Frame)               : 0.205\nStream size                      : 606 MiB (87%)\nWriting library                  : XviD 1.2.1 (UTC 2008-12-04)\n\nAudio\nID                               : 1\nFormat                           : MPEG Audio\nFormat version                   : Version 1\nFormat profile                   : Layer 3\nFormat_Settings_Mode             : Joint stereo / MS Stereo\nCodec ID                         : 55\nCodec ID/Hint                    : MP3\nDuration                         : 1h 22mn\nBit rate mode                    : Variable\nBit rate                         : 145 Kbps\nNominal bit rate                 : 144 Kbps\nChannel(s)                       : 2 channels\nSampling rate                    : 48.0 KHz\nResolution                       : 16 bits\nStream size                      : 85.9 MiB (12%)\nAlignment                        : Aligned on interleaves\nInterleave, duration             : 24 ms (0.58 video frame)\nInterleave, preload duration     : 232 ms\nWriting library                  : LAME3.90.\nEncoding settings                : -m j -V 4 -q 2 -lowpass 18 --abr 144","torrent":{"xt":"urn:btih:0f12a2ae1b48578298d55310c08e7e90fc385a5f","amp;dn":"Eat+Pray+Love+DC+BDRip+XviD-Larceny","amp;tr":["udp%3A%2F%2Ftracker.openbittorrent.com%3A80","udp%3A%2F%2Fopen.demonii.com%3A1337","udp%3A%2F%2Ftracker.coppersurfer.tk%3A6969","udp%3A%2F%2Fexodus.desync.com%3A6969"],"infoHash":"0f12a2ae1b48578298d55310c08e7e90fc385a5f","infoHashBuffer":{"type":"Buffer","data":[15,18,162,174,27,72,87,130,152,213,83,16,192,142,126,144,252,56,90,95]},"announce":[],"urlList":[]}}